# xmcd
#
# Track frame offsets:
#	150
#	10956
#	22282
#	33381
#	49993
#	63703
#	76443
#	89355
#	99710
#	108152
#	118133
#	127228
#	139085
#	150441
#	160152
#	170360
#	180517
#	193131
#	204148
#	214290
#	231203
#	247401
#	264802
#	284540
#
# Disc length: 3979 seconds
#
# Revision: 0
# Processed by: cddbd v1.5.2PL0 Copyright (c) Steve Scherf et al.
# Submitted via: EasyCDDAExtractor 2010.6.0.0
#
DISCID=620f8918
DTITLE=Sea Johnny - The Good Years 1958-1999
DYEAR=1900
DGENRE=
TTITLE0=Three Six Packs Two Arms And A Juke Box
TTITLE1=My Baby Walks All Over Me
TTITLE2=My Old Faded Rose
TTITLE3=Willie's Drunk And Nellie's Dyin'
TTITLE4=Behind My Baby's Bedroom Door
TTITLE5=Nothin' Bad As Bein' Lonely
TTITLE6=Everybody's Friend
TTITLE7=Everyday
TTITLE8=Why Can't I Just Come Home And You Be Gone
TTITLE9=Standing Room Only
TTITLE10=Mystery Train
TTITLE11=There's Another Man
TTITLE12=Hitchin' And Hikin'
TTITLE13=If It Weren't For Hard Luck
TTITLE14=It's A Shame
TTITLE15=It Won't Be Easy To Forget
TTITLE16=Mary Rocks Him To Sleep
TTITLE17=If
TTITLE18=For Worth Girl
TTITLE19=Tecunseh Valley
TTITLE20=Strawberry Roan
TTITLE21=In The Early Morning Rain
TTITLE22=Ballad Of The Tarantula Express
TTITLE23=Brazos River Song
EXTD=
EXTT0=
EXTT1=
EXTT2=
EXTT3=
EXTT4=
EXTT5=
EXTT6=
EXTT7=
EXTT8=
EXTT9=
EXTT10=
EXTT11=
EXTT12=
EXTT13=
EXTT14=
EXTT15=
EXTT16=
EXTT17=
EXTT18=
EXTT19=
EXTT20=
EXTT21=
EXTT22=
EXTT23=
PLAYORDER=
